<svg xmlns="http://www.w3.org/2000/svg" viewBox="0 0 72 72" fill="none">
  <style>
    /* Stili per modalità chiara (default) */
    .icon-path { fill: #000000}
    
    /* Stili per modalità scura - si attiva automaticamente */
    @media (prefers-color-scheme: dark) {
      .icon-path { fill: #ffffff}
    }
  </style>
  
  <g transform="translate(3.6,3.6) scale(0.9)">
    <path class="icon-path" d="M72 16.4381C72 20.6234 68.6025 24.0202 64.4163 24.0202H54.7546C54.2541 24.0202 53.7687 23.8989 53.3288 23.6563L31.5484 12.0101H26.9981V42.3538C26.9981 44.7801 24.2983 46.2207 22.281 44.8711L1.68359 31.1323C0.621867 30.4347 0 29.2519 0 27.9781V14.2848C0 12.8896 0.773541 11.6007 2.00211 10.9334L20.8249 0.894693C21.917 0.303286 23.1456 0 24.3893 0H60.0025C66.6307 0 72 5.36816 72 11.9949V16.4381ZM70.3164 40.8981L49.719 27.1592C47.7017 25.8096 45.0019 27.2654 45.0019 29.6765V60.0202H40.4517L18.6712 48.3741C18.2313 48.1314 17.746 48.0101 17.2454 48.0101H7.58374C3.39751 48.0101 0 51.4069 0 55.5923V60.0051C0 66.6319 5.36928 72 11.9975 72H47.6107C48.8545 72 50.083 71.6967 51.1751 71.1053L69.9979 61.0666C71.2265 60.4145 72 59.1255 72 57.7153V44.0219C72 42.7481 71.363 41.5653 70.3164 40.8677V40.8981Z"/>
  </g>
</svg>
